<svg width="43" height="39" viewBox="0 0 43 39" fill="none" xmlns="http://www.w3.org/2000/svg">
<path d="M10.7454 33.3459L10.7511 33.3477L8.69959 36.9009C7.95076 38.1979 6.29232 38.6423 4.99529 37.8934C3.69849 37.1446 3.25388 35.4862 4.00271 34.1891L5.51396 31.5716L5.65904 31.3204C5.91802 30.9482 6.55716 30.3055 7.83568 30.4265C7.83568 30.4265 10.8444 30.753 11.0621 32.3167C11.0621 32.3167 11.0916 32.8312 10.7454 33.3459ZM39.8415 24.2709H33.4444C33.0087 24.2416 32.8187 24.0859 32.7437 23.9955L32.739 23.9873L25.8912 12.1265L25.8823 12.1323L25.4717 11.5436C24.7986 10.5142 23.7298 13.1467 23.7298 13.1467C22.4537 16.0802 23.911 19.4151 24.4189 20.4231L33.9303 36.8973C34.6789 38.1941 36.3373 38.6387 37.6346 37.8897C38.9314 37.1409 39.376 35.4824 38.6269 34.1854L36.2487 30.066C36.2026 29.9662 36.1224 29.6952 36.6101 29.6941H39.8415C41.3391 29.6941 42.5532 28.48 42.5532 26.9823C42.5532 25.4847 41.3391 24.2706 39.8415 24.2706V24.2709ZM27.4163 27.9571C27.4163 27.9571 27.7578 29.6941 26.4366 29.6941H2.78841C1.29075 29.6941 0.0766907 28.48 0.0766907 26.9823C0.0766907 25.4847 1.29075 24.2706 2.78841 24.2706H8.8681C9.84966 24.2139 10.0822 23.6472 10.0822 23.6472L10.0878 23.65L18.0237 9.90437L18.0214 9.9039C18.166 9.63835 18.0455 9.38734 18.0247 9.34773L15.4037 4.80812C14.6548 3.51132 15.0992 1.85265 16.3962 1.10405C17.6933 0.355226 19.3517 0.799367 20.1005 2.0964L21.316 4.20179L22.5294 2.10015C23.2782 0.803351 24.9366 0.358742 26.2337 1.1078C27.5307 1.85663 27.9751 3.51484 27.2262 4.81187L16.1829 23.9392C16.1347 24.0557 16.1199 24.2385 16.4792 24.2706H23.0801L23.0815 24.3351C23.0815 24.3351 26.8967 24.3944 27.4163 27.9571Z" fill="white"/>
</svg>
